<?xml version="1.0" encoding="utf-8"?>
<!-- Generator: Adobe Illustrator 19.0.0, SVG Export Plug-In . SVG Version: 6.00 Build 0)  -->
<svg version="1.1" id="Layer_1" xmlns="http://www.w3.org/2000/svg" xmlns:xlink="http://www.w3.org/1999/xlink" x="0px" y="0px"
	 viewBox="0 0 320 65" style="enable-background:new 0 0 320 65;" xml:space="preserve">
<style type="text/css">
	.st0{fill:#F3715B;}
	.st1{fill:#FFD15D;}
	.st2{fill:#F15640;}
	.st3{fill:#F7B64C;}
	.st4{fill:#FFFFFF;}
	.st5{fill:#FFC954;}
</style>
<g id="XMLID_4_">
	<polygon id="XMLID_15_" class="st0" points="165.3,52.8 153.7,52.8 155.7,48.6 157.4,44.7 161.6,44.7 163.3,48.6 	"/>
	<path id="XMLID_14_" class="st1" d="M172.6,52.8h-26.2c-1.4,0-2.6,1.2-2.6,2.6V64h31.3v-8.5C175.2,54,174.1,52.8,172.6,52.8z"/>
	<path id="XMLID_13_" class="st2" d="M163.3,48.6c-1,0.5-2.1,1-3.1,1.4l-0.7,0.1l-0.7-0.3c-1-0.4-2.1-0.9-3.1-1.4l1.7-3.9h4.1
		L163.3,48.6z"/>
	<g id="XMLID_8_">
		<path id="XMLID_10_" class="st3" d="M128,8.2v5.4c0,13.1,8.1,24.4,19.5,29.1c3.7,1.6,7.7,2.4,11.9,2.4s8.3-0.8,11.9-2.4
			c11.4-4.7,19.5-16,19.5-29.1V8.2H128z M185.7,13.6c0,6.3-2.2,12.1-6,16.7c-4.9,5.8-12.1,9.6-20.2,9.6s-15.3-3.7-20.2-9.6
			c-3.7-4.5-6-10.4-6-16.7v-0.1h52.3v0.1L185.7,13.6L185.7,13.6z"/>
		<path id="XMLID_9_" class="st3" d="M180,1H139c-0.9,0-1.6,0.8-1.6,1.6c0,0.9,0.7,1.7,1.6,1.7H180c0.9,0,1.6-0.8,1.6-1.6
			C181.5,1.8,180.9,1,180,1z"/>
	</g>
	<path id="XMLID_7_" class="st1" d="M180,4.3v14.2c0,13.1-8.1,25-20.5,29.8C147.2,43.4,139,31.6,139,18.3v-14H180z"/>
	<polygon id="XMLID_6_" class="st4" points="159.5,10.2 162.3,18.6 171,18.6 164,23.8 166.6,32.2 159.5,27 152.4,32.2 155,23.8 
		148,18.6 156.7,18.6 	"/>
	<rect id="XMLID_5_" x="139" y="4.3" class="st5" width="40.8" height="2"/>
</g>
</svg>
